<?xml version="1.0" standalone="no"?>
<!DOCTYPE svg PUBLIC "-//W3C//DTD SVG 20010904//EN"
 "http://www.w3.org/TR/2001/REC-SVG-20010904/DTD/svg10.dtd">
<svg version="1.0" xmlns="http://www.w3.org/2000/svg"
 width="700.000000pt" height="700.000000pt" viewBox="0 0 700.000000 700.000000"
 preserveAspectRatio="xMidYMid meet">
<metadata>
Created by potrace 1.14, written by Peter Selinger 2001-2017
</metadata>
<g transform="translate(0.000000,700.000000) scale(0.100000,-0.100000)"
fill="#000000" stroke="none">
<path d="M3447 6584 c-1 -1 -58 -5 -127 -8 -69 -4 -141 -9 -160 -12 -60 -8
-224 -34 -255 -39 -83 -15 -290 -71 -406 -111 -499 -171 -972 -486 -1305 -870
-32 -38 -65 -75 -72 -83 -70 -74 -252 -345 -334 -496 -90 -169 -185 -394 -235
-560 -20 -69 -71 -273 -78 -314 -3 -18 -7 -36 -9 -40 -2 -3 -7 -35 -11 -71 -4
-36 -8 -67 -10 -70 -3 -5 -13 -106 -21 -200 -5 -61 -5 -377 0 -420 3 -19 7
-64 10 -100 6 -64 14 -131 20 -160 1 -8 6 -37 10 -65 7 -42 17 -88 51 -235 2
-8 15 -53 29 -100 119 -403 328 -795 590 -1105 84 -99 98 -114 182 -198 363
-368 833 -645 1344 -792 69 -20 141 -38 160 -41 19 -3 38 -8 41 -10 6 -4 131
-25 219 -38 277 -38 573 -37 859 5 996 145 1858 763 2309 1654 130 258 248
608 286 855 3 19 7 44 10 55 6 33 21 160 31 270 6 63 6 363 0 430 -8 101 -23
226 -31 270 -3 11 -7 36 -9 55 -23 158 -116 468 -203 675 -37 89 -162 326
-222 423 -188 299 -471 610 -735 807 -22 17 -42 32 -45 35 -10 11 -219 150
-225 150 -4 0 -19 8 -33 19 -45 31 -271 147 -372 189 -195 82 -491 171 -660
197 -25 4 -52 9 -60 10 -17 3 -125 17 -155 21 -81 9 -372 23 -378 18z m338
-378 c17 -3 79 -12 139 -21 132 -20 119 -18 242 -49 410 -104 789 -301 1103
-570 95 -82 280 -275 359 -374 206 -259 369 -566 463 -869 31 -102 64 -226 73
-278 28 -153 30 -167 43 -290 10 -91 10 -419 0 -515 -13 -127 -39 -278 -64
-375 -8 -33 -16 -64 -17 -70 -46 -206 -195 -541 -341 -766 -122 -188 -197
-280 -370 -454 -198 -199 -417 -360 -665 -488 -269 -139 -617 -250 -885 -282
-27 -3 -72 -9 -100 -12 -70 -10 -457 -9 -535 0 -98 12 -189 25 -245 36 -701
140 -1302 530 -1712 1112 -192 273 -330 575 -411 904 -60 238 -77 380 -77 640
0 229 8 324 41 503 52 283 131 514 262 767 57 109 219 368 241 385 4 3 29 34
56 70 46 61 282 304 350 360 397 330 857 542 1340 616 17 2 44 7 60 9 17 3 64
8 105 11 41 4 77 8 79 10 5 5 432 -4 466 -10z"/>
<path d="M2304 4384 c-81 -33 -128 -76 -166 -154 -31 -63 -32 -185 -1 -252 47
-102 158 -171 278 -172 90 0 154 28 217 95 87 93 105 223 46 339 -71 140 -232
202 -374 144z"/>
<path d="M4491 4389 c-184 -63 -260 -283 -155 -450 53 -84 144 -132 254 -132
63 -1 84 4 130 27 63 33 111 81 143 146 31 64 31 186 -1 251 -68 139 -228 207
-371 158z"/>
<path d="M2475 2945 c-42 -15 -99 -71 -178 -174 -23 -31 -45 -58 -48 -61 -3
-3 -43 -52 -88 -110 -46 -58 -95 -119 -111 -137 -15 -18 -60 -75 -100 -128
-63 -82 -74 -102 -78 -145 -2 -27 -2 -60 2 -74 8 -32 61 -93 97 -112 37 -19
116 -17 159 4 29 14 110 105 203 226 12 16 62 78 111 138 72 90 91 107 101 96
7 -7 70 -85 140 -173 70 -88 144 -180 164 -204 20 -24 38 -47 41 -51 13 -20
89 -50 124 -50 51 0 118 33 149 73 14 18 33 42 43 54 11 12 78 96 149 187 72
90 135 167 141 169 6 3 62 -60 125 -140 63 -80 119 -150 124 -157 6 -6 34 -41
64 -78 67 -84 120 -113 191 -106 58 6 102 34 147 92 18 24 41 52 50 63 10 12
74 91 142 177 68 86 127 153 132 151 4 -3 87 -104 183 -225 200 -250 220 -266
314 -257 122 13 198 143 147 250 -8 18 -103 142 -211 277 -356 445 -345 434
-441 433 -88 -1 -93 -6 -400 -393 -6 -8 -27 -34 -46 -57 l-35 -43 -28 38 c-15
20 -41 53 -58 73 -17 20 -53 65 -81 100 -27 35 -57 73 -67 84 -9 11 -42 52
-73 90 -79 97 -139 125 -224 103 -54 -14 -68 -29 -265 -275 l-168 -211 -47 56
c-25 32 -100 125 -166 207 -133 167 -165 202 -199 214 -45 18 -92 19 -131 6z"/>
</g>
</svg>
